<mxfile host="Electron" modified="2023-05-02T07:52:06.821Z" agent="Mozilla/5.0 (Windows NT 10.0; Win64; x64) AppleWebKit/537.36 (KHTML, like Gecko) draw.io/21.2.1 Chrome/112.0.5615.87 Electron/24.1.2 Safari/537.36" etag="VDLLgTulaQVAWoKJ_UTU" version="21.2.1" type="device">
  <diagram name="Страница 1" id="wZ96MaBnbiqQYVf81XS4">
    <mxGraphModel dx="1849" dy="592" grid="1" gridSize="10" guides="1" tooltips="1" connect="1" arrows="1" fold="1" page="1" pageScale="1" pageWidth="827" pageHeight="1169" math="0" shadow="0">
      <root>
        <mxCell id="0" />
        <mxCell id="1" parent="0" />
        <mxCell id="zzB5koK0obywKy0hsL04-4" value="ValidateData" style="swimlane;fontStyle=1;align=center;verticalAlign=top;childLayout=stackLayout;horizontal=1;startSize=26;horizontalStack=0;resizeParent=1;resizeParentMax=0;resizeLast=0;collapsible=1;marginBottom=0;whiteSpace=wrap;fillColor=default;fontColor=default;" parent="1" vertex="1">
          <mxGeometry x="-803" width="243" height="154" as="geometry" />
        </mxCell>
        <mxCell id="zzB5koK0obywKy0hsL04-5" value="String patternName" style="text;strokeColor=none;fillColor=default;align=left;verticalAlign=top;spacingLeft=4;spacingRight=4;overflow=hidden;rotatable=0;points=[[0,0.5],[1,0.5]];portConstraint=eastwest;whiteSpace=wrap;" parent="zzB5koK0obywKy0hsL04-4" vertex="1">
          <mxGeometry y="26" width="243" height="26" as="geometry" />
        </mxCell>
        <mxCell id="WPDHcrsJoWrQ9J1OhtaY-6" value="Pattern pattern" style="text;strokeColor=none;fillColor=default;align=left;verticalAlign=top;spacingLeft=4;spacingRight=4;overflow=hidden;rotatable=0;points=[[0,0.5],[1,0.5]];portConstraint=eastwest;whiteSpace=wrap;" parent="zzB5koK0obywKy0hsL04-4" vertex="1">
          <mxGeometry y="52" width="243" height="26" as="geometry" />
        </mxCell>
        <mxCell id="zzB5koK0obywKy0hsL04-6" value="" style="line;strokeWidth=1;fillColor=default;align=left;verticalAlign=middle;spacingTop=-1;spacingLeft=3;spacingRight=3;rotatable=0;labelPosition=right;points=[];portConstraint=eastwest;strokeColor=inherit;" parent="zzB5koK0obywKy0hsL04-4" vertex="1">
          <mxGeometry y="78" width="243" height="8" as="geometry" />
        </mxCell>
        <mxCell id="zzB5koK0obywKy0hsL04-7" value="boolean checkFirstName(String firstName)" style="text;strokeColor=none;fillColor=default;align=left;verticalAlign=top;spacingLeft=4;spacingRight=4;overflow=hidden;rotatable=0;points=[[0,0.5],[1,0.5]];portConstraint=eastwest;whiteSpace=wrap;" parent="zzB5koK0obywKy0hsL04-4" vertex="1">
          <mxGeometry y="86" width="243" height="34" as="geometry" />
        </mxCell>
        <mxCell id="WPDHcrsJoWrQ9J1OhtaY-7" value="boolean checkLastName(String firstName)" style="text;strokeColor=none;fillColor=default;align=left;verticalAlign=top;spacingLeft=4;spacingRight=4;overflow=hidden;rotatable=0;points=[[0,0.5],[1,0.5]];portConstraint=eastwest;whiteSpace=wrap;" parent="zzB5koK0obywKy0hsL04-4" vertex="1">
          <mxGeometry y="120" width="243" height="34" as="geometry" />
        </mxCell>
        <mxCell id="WPDHcrsJoWrQ9J1OhtaY-1" value="&lt;p style=&quot;margin:0px;margin-top:4px;text-align:center;text-decoration:underline;&quot;&gt;&lt;b&gt;Commands&lt;/b&gt;&lt;/p&gt;&lt;hr&gt;&lt;p style=&quot;margin:0px;margin-left:8px;&quot;&gt;NONE&lt;/p&gt;&lt;p style=&quot;margin:0px;margin-left:8px;&quot;&gt;READ&lt;/p&gt;&lt;p style=&quot;margin:0px;margin-left:8px;&quot;&gt;CREATE&lt;/p&gt;&lt;p style=&quot;margin:0px;margin-left:8px;&quot;&gt;UPDATE&lt;/p&gt;&lt;p style=&quot;margin:0px;margin-left:8px;&quot;&gt;LIST&lt;/p&gt;&lt;p style=&quot;margin:0px;margin-left:8px;&quot;&gt;DELETE&lt;/p&gt;&lt;p style=&quot;margin:0px;margin-left:8px;&quot;&gt;EXIT&lt;/p&gt;" style="verticalAlign=top;align=left;overflow=fill;fontSize=12;fontFamily=Helvetica;html=1;whiteSpace=wrap;fillColor=default;labelBackgroundColor=default;" parent="1" vertex="1">
          <mxGeometry x="-800" y="515" width="240" height="140" as="geometry" />
        </mxCell>
        <mxCell id="WPDHcrsJoWrQ9J1OhtaY-2" value="ViewUser" style="swimlane;fontStyle=1;align=center;verticalAlign=top;childLayout=stackLayout;horizontal=1;startSize=26;horizontalStack=0;resizeParent=1;resizeParentMax=0;resizeLast=0;collapsible=1;marginBottom=0;whiteSpace=wrap;fillColor=default;" parent="1" vertex="1">
          <mxGeometry x="-803" y="172" width="240" height="320" as="geometry" />
        </mxCell>
        <mxCell id="WPDHcrsJoWrQ9J1OhtaY-3" value="UserController userController" style="text;strokeColor=none;fillColor=default;align=left;verticalAlign=top;spacingLeft=4;spacingRight=4;overflow=hidden;rotatable=0;points=[[0,0.5],[1,0.5]];portConstraint=eastwest;" parent="WPDHcrsJoWrQ9J1OhtaY-2" vertex="1">
          <mxGeometry y="26" width="240" height="26" as="geometry" />
        </mxCell>
        <mxCell id="WPDHcrsJoWrQ9J1OhtaY-13" value="ValidateData validate" style="text;strokeColor=none;fillColor=default;align=left;verticalAlign=top;spacingLeft=4;spacingRight=4;overflow=hidden;rotatable=0;points=[[0,0.5],[1,0.5]];portConstraint=eastwest;" parent="WPDHcrsJoWrQ9J1OhtaY-2" vertex="1">
          <mxGeometry y="52" width="240" height="26" as="geometry" />
        </mxCell>
        <mxCell id="WPDHcrsJoWrQ9J1OhtaY-14" value="+ field: type" style="text;strokeColor=none;fillColor=default;align=left;verticalAlign=top;spacingLeft=4;spacingRight=4;overflow=hidden;rotatable=0;points=[[0,0.5],[1,0.5]];portConstraint=eastwest;" parent="WPDHcrsJoWrQ9J1OhtaY-2" vertex="1">
          <mxGeometry y="78" width="240" height="26" as="geometry" />
        </mxCell>
        <mxCell id="WPDHcrsJoWrQ9J1OhtaY-12" value="+ field: type" style="text;strokeColor=none;fillColor=default;align=left;verticalAlign=top;spacingLeft=4;spacingRight=4;overflow=hidden;rotatable=0;points=[[0,0.5],[1,0.5]];portConstraint=eastwest;" parent="WPDHcrsJoWrQ9J1OhtaY-2" vertex="1">
          <mxGeometry y="104" width="240" height="26" as="geometry" />
        </mxCell>
        <mxCell id="WPDHcrsJoWrQ9J1OhtaY-4" value="" style="line;strokeWidth=1;fillColor=default;align=left;verticalAlign=middle;spacingTop=-1;spacingLeft=3;spacingRight=3;rotatable=0;labelPosition=right;points=[];portConstraint=eastwest;strokeColor=inherit;" parent="WPDHcrsJoWrQ9J1OhtaY-2" vertex="1">
          <mxGeometry y="130" width="240" height="8" as="geometry" />
        </mxCell>
        <mxCell id="WPDHcrsJoWrQ9J1OhtaY-15" value=" void run()" style="text;strokeColor=none;fillColor=default;align=left;verticalAlign=top;spacingLeft=4;spacingRight=4;overflow=hidden;rotatable=0;points=[[0,0.5],[1,0.5]];portConstraint=eastwest;" parent="WPDHcrsJoWrQ9J1OhtaY-2" vertex="1">
          <mxGeometry y="138" width="240" height="26" as="geometry" />
        </mxCell>
        <mxCell id="WPDHcrsJoWrQ9J1OhtaY-5" value="void createUser()" style="text;strokeColor=none;fillColor=default;align=left;verticalAlign=top;spacingLeft=4;spacingRight=4;overflow=hidden;rotatable=0;points=[[0,0.5],[1,0.5]];portConstraint=eastwest;" parent="WPDHcrsJoWrQ9J1OhtaY-2" vertex="1">
          <mxGeometry y="164" width="240" height="26" as="geometry" />
        </mxCell>
        <mxCell id="WPDHcrsJoWrQ9J1OhtaY-17" value="User inputUser()" style="text;strokeColor=none;fillColor=default;align=left;verticalAlign=top;spacingLeft=4;spacingRight=4;overflow=hidden;rotatable=0;points=[[0,0.5],[1,0.5]];portConstraint=eastwest;" parent="WPDHcrsJoWrQ9J1OhtaY-2" vertex="1">
          <mxGeometry y="190" width="240" height="26" as="geometry" />
        </mxCell>
        <mxCell id="WPDHcrsJoWrQ9J1OhtaY-19" value="String readUser()" style="text;strokeColor=none;fillColor=default;align=left;verticalAlign=top;spacingLeft=4;spacingRight=4;overflow=hidden;rotatable=0;points=[[0,0.5],[1,0.5]];portConstraint=eastwest;" parent="WPDHcrsJoWrQ9J1OhtaY-2" vertex="1">
          <mxGeometry y="216" width="240" height="26" as="geometry" />
        </mxCell>
        <mxCell id="WPDHcrsJoWrQ9J1OhtaY-18" value="updateUser()" style="text;strokeColor=none;fillColor=default;align=left;verticalAlign=top;spacingLeft=4;spacingRight=4;overflow=hidden;rotatable=0;points=[[0,0.5],[1,0.5]];portConstraint=eastwest;" parent="WPDHcrsJoWrQ9J1OhtaY-2" vertex="1">
          <mxGeometry y="242" width="240" height="26" as="geometry" />
        </mxCell>
        <mxCell id="WPDHcrsJoWrQ9J1OhtaY-20" value="printAllUsers()" style="text;strokeColor=none;fillColor=default;align=left;verticalAlign=top;spacingLeft=4;spacingRight=4;overflow=hidden;rotatable=0;points=[[0,0.5],[1,0.5]];portConstraint=eastwest;" parent="WPDHcrsJoWrQ9J1OhtaY-2" vertex="1">
          <mxGeometry y="268" width="240" height="26" as="geometry" />
        </mxCell>
        <mxCell id="WPDHcrsJoWrQ9J1OhtaY-22" value="String prompt(String message)" style="text;strokeColor=none;fillColor=default;align=left;verticalAlign=top;spacingLeft=4;spacingRight=4;overflow=hidden;rotatable=0;points=[[0,0.5],[1,0.5]];portConstraint=eastwest;" parent="WPDHcrsJoWrQ9J1OhtaY-2" vertex="1">
          <mxGeometry y="294" width="240" height="26" as="geometry" />
        </mxCell>
        <mxCell id="WPDHcrsJoWrQ9J1OhtaY-8" value="User" style="swimlane;fontStyle=1;align=center;verticalAlign=top;childLayout=stackLayout;horizontal=1;startSize=26;horizontalStack=0;resizeParent=1;resizeParentMax=0;resizeLast=0;collapsible=1;marginBottom=0;fillColor=default;" parent="1" vertex="1">
          <mxGeometry x="-520" y="380" width="220" height="372" as="geometry" />
        </mxCell>
        <mxCell id="WPDHcrsJoWrQ9J1OhtaY-9" value="String id" style="text;strokeColor=none;fillColor=default;align=left;verticalAlign=top;spacingLeft=4;spacingRight=4;overflow=hidden;rotatable=0;points=[[0,0.5],[1,0.5]];portConstraint=eastwest;" parent="WPDHcrsJoWrQ9J1OhtaY-8" vertex="1">
          <mxGeometry y="26" width="220" height="26" as="geometry" />
        </mxCell>
        <mxCell id="WPDHcrsJoWrQ9J1OhtaY-42" value="String firstName" style="text;strokeColor=none;fillColor=default;align=left;verticalAlign=top;spacingLeft=4;spacingRight=4;overflow=hidden;rotatable=0;points=[[0,0.5],[1,0.5]];portConstraint=eastwest;" parent="WPDHcrsJoWrQ9J1OhtaY-8" vertex="1">
          <mxGeometry y="52" width="220" height="26" as="geometry" />
        </mxCell>
        <mxCell id="WPDHcrsJoWrQ9J1OhtaY-41" value="String lastName" style="text;strokeColor=none;fillColor=default;align=left;verticalAlign=top;spacingLeft=4;spacingRight=4;overflow=hidden;rotatable=0;points=[[0,0.5],[1,0.5]];portConstraint=eastwest;" parent="WPDHcrsJoWrQ9J1OhtaY-8" vertex="1">
          <mxGeometry y="78" width="220" height="26" as="geometry" />
        </mxCell>
        <mxCell id="WPDHcrsJoWrQ9J1OhtaY-40" value="String phone" style="text;strokeColor=none;fillColor=default;align=left;verticalAlign=top;spacingLeft=4;spacingRight=4;overflow=hidden;rotatable=0;points=[[0,0.5],[1,0.5]];portConstraint=eastwest;" parent="WPDHcrsJoWrQ9J1OhtaY-8" vertex="1">
          <mxGeometry y="104" width="220" height="26" as="geometry" />
        </mxCell>
        <mxCell id="WPDHcrsJoWrQ9J1OhtaY-10" value="" style="line;strokeWidth=1;fillColor=default;align=left;verticalAlign=middle;spacingTop=-1;spacingLeft=3;spacingRight=3;rotatable=0;labelPosition=right;points=[];portConstraint=eastwest;strokeColor=inherit;" parent="WPDHcrsJoWrQ9J1OhtaY-8" vertex="1">
          <mxGeometry y="130" width="220" height="8" as="geometry" />
        </mxCell>
        <mxCell id="WPDHcrsJoWrQ9J1OhtaY-43" value="String getId()" style="text;strokeColor=none;fillColor=default;align=left;verticalAlign=top;spacingLeft=4;spacingRight=4;overflow=hidden;rotatable=0;points=[[0,0.5],[1,0.5]];portConstraint=eastwest;" parent="WPDHcrsJoWrQ9J1OhtaY-8" vertex="1">
          <mxGeometry y="138" width="220" height="26" as="geometry" />
        </mxCell>
        <mxCell id="WPDHcrsJoWrQ9J1OhtaY-44" value=" void setId(String id)" style="text;strokeColor=none;fillColor=default;align=left;verticalAlign=top;spacingLeft=4;spacingRight=4;overflow=hidden;rotatable=0;points=[[0,0.5],[1,0.5]];portConstraint=eastwest;" parent="WPDHcrsJoWrQ9J1OhtaY-8" vertex="1">
          <mxGeometry y="164" width="220" height="26" as="geometry" />
        </mxCell>
        <mxCell id="WPDHcrsJoWrQ9J1OhtaY-46" value="String getFirstName()" style="text;strokeColor=none;fillColor=default;align=left;verticalAlign=top;spacingLeft=4;spacingRight=4;overflow=hidden;rotatable=0;points=[[0,0.5],[1,0.5]];portConstraint=eastwest;" parent="WPDHcrsJoWrQ9J1OhtaY-8" vertex="1">
          <mxGeometry y="190" width="220" height="26" as="geometry" />
        </mxCell>
        <mxCell id="WPDHcrsJoWrQ9J1OhtaY-47" value="void setFirstName(String firstName)" style="text;strokeColor=none;fillColor=default;align=left;verticalAlign=top;spacingLeft=4;spacingRight=4;overflow=hidden;rotatable=0;points=[[0,0.5],[1,0.5]];portConstraint=eastwest;" parent="WPDHcrsJoWrQ9J1OhtaY-8" vertex="1">
          <mxGeometry y="216" width="220" height="26" as="geometry" />
        </mxCell>
        <mxCell id="WPDHcrsJoWrQ9J1OhtaY-45" value="String getLastName()" style="text;strokeColor=none;fillColor=default;align=left;verticalAlign=top;spacingLeft=4;spacingRight=4;overflow=hidden;rotatable=0;points=[[0,0.5],[1,0.5]];portConstraint=eastwest;" parent="WPDHcrsJoWrQ9J1OhtaY-8" vertex="1">
          <mxGeometry y="242" width="220" height="26" as="geometry" />
        </mxCell>
        <mxCell id="WPDHcrsJoWrQ9J1OhtaY-48" value="setLastName(String lastName)" style="text;strokeColor=none;fillColor=default;align=left;verticalAlign=top;spacingLeft=4;spacingRight=4;overflow=hidden;rotatable=0;points=[[0,0.5],[1,0.5]];portConstraint=eastwest;" parent="WPDHcrsJoWrQ9J1OhtaY-8" vertex="1">
          <mxGeometry y="268" width="220" height="26" as="geometry" />
        </mxCell>
        <mxCell id="WPDHcrsJoWrQ9J1OhtaY-49" value="String getPhone()" style="text;strokeColor=none;fillColor=default;align=left;verticalAlign=top;spacingLeft=4;spacingRight=4;overflow=hidden;rotatable=0;points=[[0,0.5],[1,0.5]];portConstraint=eastwest;" parent="WPDHcrsJoWrQ9J1OhtaY-8" vertex="1">
          <mxGeometry y="294" width="220" height="26" as="geometry" />
        </mxCell>
        <mxCell id="WPDHcrsJoWrQ9J1OhtaY-51" value="void setPhone(String phone)" style="text;strokeColor=none;fillColor=default;align=left;verticalAlign=top;spacingLeft=4;spacingRight=4;overflow=hidden;rotatable=0;points=[[0,0.5],[1,0.5]];portConstraint=eastwest;" parent="WPDHcrsJoWrQ9J1OhtaY-8" vertex="1">
          <mxGeometry y="320" width="220" height="26" as="geometry" />
        </mxCell>
        <mxCell id="WPDHcrsJoWrQ9J1OhtaY-52" value="String toString()" style="text;strokeColor=none;fillColor=default;align=left;verticalAlign=top;spacingLeft=4;spacingRight=4;overflow=hidden;rotatable=0;points=[[0,0.5],[1,0.5]];portConstraint=eastwest;" parent="WPDHcrsJoWrQ9J1OhtaY-8" vertex="1">
          <mxGeometry y="346" width="220" height="26" as="geometry" />
        </mxCell>
        <mxCell id="WPDHcrsJoWrQ9J1OhtaY-24" value="UserController" style="swimlane;fontStyle=1;align=center;verticalAlign=top;childLayout=stackLayout;horizontal=1;startSize=26;horizontalStack=0;resizeParent=1;resizeParentMax=0;resizeLast=0;collapsible=1;marginBottom=0;whiteSpace=wrap;fillColor=default;" parent="1" vertex="1">
          <mxGeometry x="-520" y="172" width="220" height="192" as="geometry" />
        </mxCell>
        <mxCell id="WPDHcrsJoWrQ9J1OhtaY-25" value="final Repository repository" style="text;strokeColor=none;fillColor=default;align=left;verticalAlign=top;spacingLeft=4;spacingRight=4;overflow=hidden;rotatable=0;points=[[0,0.5],[1,0.5]];portConstraint=eastwest;whiteSpace=wrap;" parent="WPDHcrsJoWrQ9J1OhtaY-24" vertex="1">
          <mxGeometry y="26" width="220" height="26" as="geometry" />
        </mxCell>
        <mxCell id="WPDHcrsJoWrQ9J1OhtaY-26" value="" style="line;strokeWidth=1;fillColor=default;align=left;verticalAlign=middle;spacingTop=-1;spacingLeft=3;spacingRight=3;rotatable=0;labelPosition=right;points=[];portConstraint=eastwest;strokeColor=inherit;" parent="WPDHcrsJoWrQ9J1OhtaY-24" vertex="1">
          <mxGeometry y="52" width="220" height="8" as="geometry" />
        </mxCell>
        <mxCell id="WPDHcrsJoWrQ9J1OhtaY-105" value="serController(Repository repository)" style="text;strokeColor=none;fillColor=default;align=left;verticalAlign=top;spacingLeft=4;spacingRight=4;overflow=hidden;rotatable=0;points=[[0,0.5],[1,0.5]];portConstraint=eastwest;whiteSpace=wrap;" parent="WPDHcrsJoWrQ9J1OhtaY-24" vertex="1">
          <mxGeometry y="60" width="220" height="30" as="geometry" />
        </mxCell>
        <mxCell id="WPDHcrsJoWrQ9J1OhtaY-107" value="void saveUser(User user)" style="text;strokeColor=none;fillColor=default;align=left;verticalAlign=top;spacingLeft=4;spacingRight=4;overflow=hidden;rotatable=0;points=[[0,0.5],[1,0.5]];portConstraint=eastwest;whiteSpace=wrap;" parent="WPDHcrsJoWrQ9J1OhtaY-24" vertex="1">
          <mxGeometry y="90" width="220" height="26" as="geometry" />
        </mxCell>
        <mxCell id="WPDHcrsJoWrQ9J1OhtaY-106" value="User readUser(String userId)" style="text;strokeColor=none;fillColor=default;align=left;verticalAlign=top;spacingLeft=4;spacingRight=4;overflow=hidden;rotatable=0;points=[[0,0.5],[1,0.5]];portConstraint=eastwest;whiteSpace=wrap;" parent="WPDHcrsJoWrQ9J1OhtaY-24" vertex="1">
          <mxGeometry y="116" width="220" height="24" as="geometry" />
        </mxCell>
        <mxCell id="WPDHcrsJoWrQ9J1OhtaY-108" value="List&lt;User&gt; getUsers()    " style="text;strokeColor=none;fillColor=default;align=left;verticalAlign=top;spacingLeft=4;spacingRight=4;overflow=hidden;rotatable=0;points=[[0,0.5],[1,0.5]];portConstraint=eastwest;whiteSpace=wrap;" parent="WPDHcrsJoWrQ9J1OhtaY-24" vertex="1">
          <mxGeometry y="140" width="220" height="26" as="geometry" />
        </mxCell>
        <mxCell id="WPDHcrsJoWrQ9J1OhtaY-110" value="void updateUser(User updatedUser)" style="text;strokeColor=none;fillColor=default;align=left;verticalAlign=top;spacingLeft=4;spacingRight=4;overflow=hidden;rotatable=0;points=[[0,0.5],[1,0.5]];portConstraint=eastwest;whiteSpace=wrap;" parent="WPDHcrsJoWrQ9J1OhtaY-24" vertex="1">
          <mxGeometry y="166" width="220" height="26" as="geometry" />
        </mxCell>
        <mxCell id="WPDHcrsJoWrQ9J1OhtaY-28" value="RepositoryFile implements Repository" style="swimlane;fontStyle=1;align=center;verticalAlign=top;childLayout=stackLayout;horizontal=1;startSize=40;horizontalStack=0;resizeParent=1;resizeParentMax=0;resizeLast=0;collapsible=1;marginBottom=0;whiteSpace=wrap;fillColor=default;" parent="1" vertex="1">
          <mxGeometry x="-256" y="175" width="240" height="230" as="geometry" />
        </mxCell>
        <mxCell id="WPDHcrsJoWrQ9J1OhtaY-56" value="UserMapper mapper    " style="text;strokeColor=none;fillColor=default;align=left;verticalAlign=top;spacingLeft=4;spacingRight=4;overflow=hidden;rotatable=0;points=[[0,0.5],[1,0.5]];portConstraint=eastwest;" parent="WPDHcrsJoWrQ9J1OhtaY-28" vertex="1">
          <mxGeometry y="40" width="240" height="26" as="geometry" />
        </mxCell>
        <mxCell id="WPDHcrsJoWrQ9J1OhtaY-57" value="FileOperation fileOperation" style="text;strokeColor=none;fillColor=default;align=left;verticalAlign=top;spacingLeft=4;spacingRight=4;overflow=hidden;rotatable=0;points=[[0,0.5],[1,0.5]];portConstraint=eastwest;" parent="WPDHcrsJoWrQ9J1OhtaY-28" vertex="1">
          <mxGeometry y="66" width="240" height="26" as="geometry" />
        </mxCell>
        <mxCell id="WPDHcrsJoWrQ9J1OhtaY-30" value="" style="line;strokeWidth=1;fillColor=default;align=left;verticalAlign=middle;spacingTop=-1;spacingLeft=3;spacingRight=3;rotatable=0;labelPosition=right;points=[];portConstraint=eastwest;strokeColor=inherit;" parent="WPDHcrsJoWrQ9J1OhtaY-28" vertex="1">
          <mxGeometry y="92" width="240" height="8" as="geometry" />
        </mxCell>
        <mxCell id="WPDHcrsJoWrQ9J1OhtaY-55" value="RepositoryFile(FileOperation fileOperation)" style="text;strokeColor=none;fillColor=default;align=left;verticalAlign=top;spacingLeft=4;spacingRight=4;overflow=hidden;rotatable=0;points=[[0,0.5],[1,0.5]];portConstraint=eastwest;" parent="WPDHcrsJoWrQ9J1OhtaY-28" vertex="1">
          <mxGeometry y="100" width="240" height="26" as="geometry" />
        </mxCell>
        <mxCell id="WPDHcrsJoWrQ9J1OhtaY-59" value="List&lt;User&gt; getAllUsers()" style="text;strokeColor=none;fillColor=default;align=left;verticalAlign=top;spacingLeft=4;spacingRight=4;overflow=hidden;rotatable=0;points=[[0,0.5],[1,0.5]];portConstraint=eastwest;" parent="WPDHcrsJoWrQ9J1OhtaY-28" vertex="1">
          <mxGeometry y="126" width="240" height="26" as="geometry" />
        </mxCell>
        <mxCell id="WPDHcrsJoWrQ9J1OhtaY-60" value="String CreateUser(User user)    " style="text;strokeColor=none;fillColor=default;align=left;verticalAlign=top;spacingLeft=4;spacingRight=4;overflow=hidden;rotatable=0;points=[[0,0.5],[1,0.5]];portConstraint=eastwest;" parent="WPDHcrsJoWrQ9J1OhtaY-28" vertex="1">
          <mxGeometry y="152" width="240" height="26" as="geometry" />
        </mxCell>
        <mxCell id="WPDHcrsJoWrQ9J1OhtaY-31" value="void updateUser(User updatedUser)" style="text;strokeColor=none;fillColor=default;align=left;verticalAlign=top;spacingLeft=4;spacingRight=4;overflow=hidden;rotatable=0;points=[[0,0.5],[1,0.5]];portConstraint=eastwest;" parent="WPDHcrsJoWrQ9J1OhtaY-28" vertex="1">
          <mxGeometry y="178" width="240" height="26" as="geometry" />
        </mxCell>
        <mxCell id="WPDHcrsJoWrQ9J1OhtaY-71" value="void saveAllUsers(List&lt;User&gt; users)" style="text;strokeColor=none;fillColor=default;align=left;verticalAlign=top;spacingLeft=4;spacingRight=4;overflow=hidden;rotatable=0;points=[[0,0.5],[1,0.5]];portConstraint=eastwest;" parent="WPDHcrsJoWrQ9J1OhtaY-28" vertex="1">
          <mxGeometry y="204" width="240" height="26" as="geometry" />
        </mxCell>
        <mxCell id="WPDHcrsJoWrQ9J1OhtaY-36" value="UserMapper" style="swimlane;fontStyle=1;align=center;verticalAlign=top;childLayout=stackLayout;horizontal=1;startSize=26;horizontalStack=0;resizeParent=1;resizeParentMax=0;resizeLast=0;collapsible=1;marginBottom=0;fillColor=default;" parent="1" vertex="1">
          <mxGeometry x="-520" y="770" width="220" height="86" as="geometry" />
        </mxCell>
        <mxCell id="WPDHcrsJoWrQ9J1OhtaY-38" value="" style="line;strokeWidth=1;fillColor=default;align=left;verticalAlign=middle;spacingTop=-1;spacingLeft=3;spacingRight=3;rotatable=0;labelPosition=right;points=[];portConstraint=eastwest;strokeColor=inherit;" parent="WPDHcrsJoWrQ9J1OhtaY-36" vertex="1">
          <mxGeometry y="26" width="220" height="8" as="geometry" />
        </mxCell>
        <mxCell id="WPDHcrsJoWrQ9J1OhtaY-54" value="String map(User user)" style="text;strokeColor=none;fillColor=default;align=left;verticalAlign=top;spacingLeft=4;spacingRight=4;overflow=hidden;rotatable=0;points=[[0,0.5],[1,0.5]];portConstraint=eastwest;" parent="WPDHcrsJoWrQ9J1OhtaY-36" vertex="1">
          <mxGeometry y="34" width="220" height="26" as="geometry" />
        </mxCell>
        <mxCell id="WPDHcrsJoWrQ9J1OhtaY-39" value="User map(String line)" style="text;strokeColor=none;fillColor=default;align=left;verticalAlign=top;spacingLeft=4;spacingRight=4;overflow=hidden;rotatable=0;points=[[0,0.5],[1,0.5]];portConstraint=eastwest;" parent="WPDHcrsJoWrQ9J1OhtaY-36" vertex="1">
          <mxGeometry y="60" width="220" height="26" as="geometry" />
        </mxCell>
        <mxCell id="WPDHcrsJoWrQ9J1OhtaY-72" value="FileOperationImpl implements FileOperation" style="swimlane;fontStyle=1;align=center;verticalAlign=top;childLayout=stackLayout;horizontal=1;startSize=40;horizontalStack=0;resizeParent=1;resizeParentMax=0;resizeLast=0;collapsible=1;marginBottom=0;whiteSpace=wrap;fillColor=default;" parent="1" vertex="1">
          <mxGeometry x="-256" y="433" width="240" height="152" as="geometry" />
        </mxCell>
        <mxCell id="WPDHcrsJoWrQ9J1OhtaY-76" value="String fileName" style="text;strokeColor=none;fillColor=default;align=left;verticalAlign=top;spacingLeft=4;spacingRight=4;overflow=hidden;rotatable=0;points=[[0,0.5],[1,0.5]];portConstraint=eastwest;" parent="WPDHcrsJoWrQ9J1OhtaY-72" vertex="1">
          <mxGeometry y="40" width="240" height="26" as="geometry" />
        </mxCell>
        <mxCell id="WPDHcrsJoWrQ9J1OhtaY-74" value="" style="line;strokeWidth=1;fillColor=default;align=left;verticalAlign=middle;spacingTop=-1;spacingLeft=3;spacingRight=3;rotatable=0;labelPosition=right;points=[];portConstraint=eastwest;strokeColor=inherit;" parent="WPDHcrsJoWrQ9J1OhtaY-72" vertex="1">
          <mxGeometry y="66" width="240" height="8" as="geometry" />
        </mxCell>
        <mxCell id="WPDHcrsJoWrQ9J1OhtaY-80" value="FileOperationImpl(String fileName)" style="text;strokeColor=none;fillColor=default;align=left;verticalAlign=top;spacingLeft=4;spacingRight=4;overflow=hidden;rotatable=0;points=[[0,0.5],[1,0.5]];portConstraint=eastwest;" parent="WPDHcrsJoWrQ9J1OhtaY-72" vertex="1">
          <mxGeometry y="74" width="240" height="26" as="geometry" />
        </mxCell>
        <mxCell id="WPDHcrsJoWrQ9J1OhtaY-79" value="List&lt;String&gt; readAllLines()" style="text;strokeColor=none;fillColor=default;align=left;verticalAlign=top;spacingLeft=4;spacingRight=4;overflow=hidden;rotatable=0;points=[[0,0.5],[1,0.5]];portConstraint=eastwest;" parent="WPDHcrsJoWrQ9J1OhtaY-72" vertex="1">
          <mxGeometry y="100" width="240" height="26" as="geometry" />
        </mxCell>
        <mxCell id="WPDHcrsJoWrQ9J1OhtaY-75" value="void saveAllLines(List&lt;String&gt; lines)" style="text;strokeColor=none;fillColor=default;align=left;verticalAlign=top;spacingLeft=4;spacingRight=4;overflow=hidden;rotatable=0;points=[[0,0.5],[1,0.5]];portConstraint=eastwest;" parent="WPDHcrsJoWrQ9J1OhtaY-72" vertex="1">
          <mxGeometry y="126" width="240" height="26" as="geometry" />
        </mxCell>
        <mxCell id="WPDHcrsJoWrQ9J1OhtaY-87" value="interface Repository" style="swimlane;fontStyle=1;align=center;verticalAlign=top;childLayout=stackLayout;horizontal=1;startSize=26;horizontalStack=0;resizeParent=1;resizeParentMax=0;resizeLast=0;collapsible=1;marginBottom=0;whiteSpace=wrap;html=1;fillColor=default;" parent="1" vertex="1">
          <mxGeometry x="-256" y="43" width="240" height="112" as="geometry" />
        </mxCell>
        <mxCell id="WPDHcrsJoWrQ9J1OhtaY-89" value="" style="line;strokeWidth=1;fillColor=default;align=left;verticalAlign=middle;spacingTop=-1;spacingLeft=3;spacingRight=3;rotatable=0;labelPosition=right;points=[];portConstraint=eastwest;strokeColor=inherit;" parent="WPDHcrsJoWrQ9J1OhtaY-87" vertex="1">
          <mxGeometry y="26" width="240" height="8" as="geometry" />
        </mxCell>
        <mxCell id="WPDHcrsJoWrQ9J1OhtaY-91" value="List&lt;User&gt; getAllUsers()" style="text;strokeColor=none;fillColor=default;align=left;verticalAlign=top;spacingLeft=4;spacingRight=4;overflow=hidden;rotatable=0;points=[[0,0.5],[1,0.5]];portConstraint=eastwest;" parent="WPDHcrsJoWrQ9J1OhtaY-87" vertex="1">
          <mxGeometry y="34" width="240" height="26" as="geometry" />
        </mxCell>
        <mxCell id="WPDHcrsJoWrQ9J1OhtaY-94" value="String CreateUser(User user)" style="text;strokeColor=none;fillColor=default;align=left;verticalAlign=top;spacingLeft=4;spacingRight=4;overflow=hidden;rotatable=0;points=[[0,0.5],[1,0.5]];portConstraint=eastwest;" parent="WPDHcrsJoWrQ9J1OhtaY-87" vertex="1">
          <mxGeometry y="60" width="240" height="26" as="geometry" />
        </mxCell>
        <mxCell id="WPDHcrsJoWrQ9J1OhtaY-95" value="updateUser(User user)" style="text;strokeColor=none;fillColor=default;align=left;verticalAlign=top;spacingLeft=4;spacingRight=4;overflow=hidden;rotatable=0;points=[[0,0.5],[1,0.5]];portConstraint=eastwest;" parent="WPDHcrsJoWrQ9J1OhtaY-87" vertex="1">
          <mxGeometry y="86" width="240" height="26" as="geometry" />
        </mxCell>
        <mxCell id="WPDHcrsJoWrQ9J1OhtaY-96" value="interface FileOperation" style="swimlane;fontStyle=1;align=center;verticalAlign=top;childLayout=stackLayout;horizontal=1;startSize=26;horizontalStack=0;resizeParent=1;resizeParentMax=0;resizeLast=0;collapsible=1;marginBottom=0;whiteSpace=wrap;fillColor=default;" parent="1" vertex="1">
          <mxGeometry x="-256" y="601" width="240" height="112" as="geometry" />
        </mxCell>
        <mxCell id="WPDHcrsJoWrQ9J1OhtaY-97" value="" style="line;strokeWidth=1;fillColor=default;align=left;verticalAlign=middle;spacingTop=-1;spacingLeft=3;spacingRight=3;rotatable=0;labelPosition=right;points=[];portConstraint=eastwest;strokeColor=inherit;" parent="WPDHcrsJoWrQ9J1OhtaY-96" vertex="1">
          <mxGeometry y="26" width="240" height="8" as="geometry" />
        </mxCell>
        <mxCell id="WPDHcrsJoWrQ9J1OhtaY-98" value="List&lt;String&gt; readAllLines()" style="text;strokeColor=none;fillColor=default;align=left;verticalAlign=top;spacingLeft=4;spacingRight=4;overflow=hidden;rotatable=0;points=[[0,0.5],[1,0.5]];portConstraint=eastwest;" parent="WPDHcrsJoWrQ9J1OhtaY-96" vertex="1">
          <mxGeometry y="34" width="240" height="26" as="geometry" />
        </mxCell>
        <mxCell id="WPDHcrsJoWrQ9J1OhtaY-99" value="saveAllLines(List&lt;String&gt; lines)" style="text;strokeColor=none;fillColor=default;align=left;verticalAlign=top;spacingLeft=4;spacingRight=4;overflow=hidden;rotatable=0;points=[[0,0.5],[1,0.5]];portConstraint=eastwest;" parent="WPDHcrsJoWrQ9J1OhtaY-96" vertex="1">
          <mxGeometry y="60" width="240" height="26" as="geometry" />
        </mxCell>
        <mxCell id="WPDHcrsJoWrQ9J1OhtaY-100" value="updateUser(User user)" style="text;strokeColor=none;fillColor=default;align=left;verticalAlign=top;spacingLeft=4;spacingRight=4;overflow=hidden;rotatable=0;points=[[0,0.5],[1,0.5]];portConstraint=eastwest;" parent="WPDHcrsJoWrQ9J1OhtaY-96" vertex="1">
          <mxGeometry y="86" width="240" height="26" as="geometry" />
        </mxCell>
      </root>
    </mxGraphModel>
  </diagram>
</mxfile>